<?xml version="1.0" encoding="utf-8"?>
<!-- Generator: Adobe Illustrator 26.3.1, SVG Export Plug-In . SVG Version: 6.00 Build 0)  -->
<svg version="1.1" id="Navbar" xmlns="http://www.w3.org/2000/svg" xmlns:xlink="http://www.w3.org/1999/xlink" x="0px" y="0px"
	 viewBox="0 0 1011 300" style="enable-background:new 0 0 1011 300;" xml:space="preserve">
<style type="text/css">
	.st0{fill:#EC1E24;}
	.st1{fill:#EE713D;}
	.st2{fill:#EF7A3E;}
	.st3{fill:#F7AA30;}
	.st4{fill:#F18A3F;}
	.st5{fill:#EC6C3D;}
	.st6{fill:#EC6139;}
	.st7{fill:#EC1E25;}
	.st8{fill:#EC5C36;}
	.st9{fill:#F0843F;}
	.st10{fill:#EC673C;}
	.st11{fill:#EC3E2A;}
	.st12{fill:#F28F40;}
	.st13{fill:#EC5432;}
	.st14{fill:#EE753E;}
	.st15{fill:#F3993B;}
	.st16{fill:#F5A336;}
	.st17{fill:#EC2A26;}
	.st18{fill:#F9B625;}
	.st19{fill:#EC4F30;}
	.st20{fill:#F8B02A;}
	.st21{fill:#FABD1D;}
	.st22{fill:#EC4A2E;}
	.st23{fill:#F49E38;}
	.st24{fill:#EC3327;}
	.st25{fill:#FDC810;}
	.st26{fill:#EC442C;}
	.st27{fill:#EF803F;}
	.st28{fill:#F3933E;}
	.st29{fill:#F7AC2E;}
	.st30{fill:#F0863F;}
	.st31{fill:#F7AB2E;}
	.st32{fill:#FDC914;}
	.st33{fill:#FECA12;}
	.st34{fill:#F9B527;}
	.st35{fill:#FBC214;}
	.st36{fill:#EE763E;}
	.st37{fill:#FBC117;}
	.st38{fill:#F49D38;}
	.st39{fill:#FBC314;}
	.st40{fill:#F9B327;}
	.st41{fill:#FAB921;}
	.st42{fill:#F1883F;}
	.st43{fill:#EF7C3F;}
	.st44{fill:#F0833F;}
	.st45{fill:#FED019;}
	.st46{fill:#F4993A;}
	.st47{fill:#FAB922;}
	.st48{fill:#FED821;}
	.st49{fill:#F5A235;}
	.st50{fill:#F28F3E;}
	.st51{fill:#EC5D36;}
	.st52{fill:#EE703D;}
	.st53{fill:#FEDA24;}
	.st54{fill:#FEDE2A;}
	.st55{fill:#F18840;}
	.st56{fill:#FEE22F;}
	.st57{fill:#EC402B;}
	.st58{fill:#EF813F;}
	.st59{fill:#FED31B;}
	.st60{fill:#FED41D;}
	.st61{fill:#ED2826;}
	.st62{fill:#F5A434;}
	.st63{fill:#FABE1C;}
	.st64{fill:#FABA20;}
	.st65{fill:#FEE531;}
	.st66{fill:#EC3027;}
	.st67{fill:#FBBF1A;}
	.st68{fill:#EC472D;}
	.st69{fill:#EC482D;}
	.st70{fill:#EC3F2B;}
	.st71{fill:#F3973C;}
	.st72{fill:#ED2726;}
	.st73{fill:#ED2725;}
	.st74{fill:#EC5533;}
	.st75{fill:#F29041;}
	.st76{fill:#FEE02D;}
	.st77{fill:#FEE12D;}
	.st78{fill:#FEEB39;}
	.st79{fill:#FEE532;}
	.st80{fill:#FEEB3A;}
	.st81{fill:#FECC14;}
	.st82{fill:#FEEB38;}
	.st83{fill:#FEEB3B;}
	.st84{fill:#FBC317;}
	.st85{fill:#FDF5F0;}
	.st86{fill:#F9B724;}
	.st87{fill:#F6A635;}
	.st88{fill:#F9B529;}
	.st89{fill:#F8AF2D;}
	.st90{fill:#FBD289;}
	.st91{fill:#EF7F3F;}
	.st92{fill:#FBD590;}
	.st93{fill:#F37478;}
	.st94{fill:#F8C290;}
	.st95{fill:#EF7D41;}
	.st96{fill:#FDCF19;}
	.st97{fill:#FDCE1F;}
	.st98{fill:#FBC124;}
	.st99{fill:#FBE8E1;}
	.st100{fill:#EC5333;}
	.st101{font-family:'CronosPro-BoldCapt';}
	.st102{font-size:173.7002px;}
	.st103{font-size:100px;}
</style>
<g>
	<g>
		<path class="st0" d="M33.3,228.3c-7.4-7.6-12-16.7-14.4-26.9c-3.9-16.7-2.1-32.7,5.7-47.9c2.7-5.3,5.3-10.7,8.7-15.6
			c1.1,0.1,1,1,1.2,1.7c0.1,0.8,0.1,1.5,0.1,2.3c0,27.5,0,54.9,0,82.4C34.5,225.7,35.2,227.5,33.3,228.3z"/>
		<path class="st1" d="M61.8,249.3c-1.4-0.3-2.6-1.1-3.8-1.9c0.2-2.1,0.2-4.2,0.2-6.3c0-45.4,0-90.8,0-136.2c0-1.8,0-3.6,0.4-5.3
			c0.9-1.4,1.9-2.8,2.8-4.2c1.7,0.3,1.5,1.6,1.4,2.7c0,4.7,0.1,9.3,0.1,14c0,7,0.1,14,0,21c-0.1,9.5,0.1,19.1,0,28.6
			c-0.1,7.5-0.2,15,0,22.6c0.1,2.8-0.2,5.6-0.7,8.3c-0.8,5.9-0.4,11.7,0.5,17.5c0.5,11.9,0.1,23.8,0.2,35.7
			C63,247,63.6,248.7,61.8,249.3z"/>
		<path class="st2" d="M64.2,91.2c1.5-2.7,3.2-5.4,5.1-7.9c1.4,0.3,0.9,1.4,1.1,2.3c0,0.3,0,0.6-0.1,0.8c0.3,6.2,0.1,12.4,0.1,18.6
			c0,11.4,0.2,22.8,0,34.2c-0.1,3.8,0.1,7.6,0,11.4c0.3,7.3,0.3,14.6,0,21.9c-1.7,3.7-3.5,7.4-5.2,11.1c-1.1-1.2-0.8-2.8-0.8-4.2
			c0-27.6,0-55.2,0-82.8C64.3,94.8,64.4,93,64.2,91.2z"/>
		<path class="st3" d="M97,130c-1,2-2.4,3.8-3.8,5.6c-1.1,0-1.1-0.9-1.2-1.6c-0.2-0.8-0.1-1.7-0.1-2.6c0-33.5,0-67,0-100.4
			c0-1.4-0.7-3.2,1.2-4.1c1.4,1.8,2.8,3.5,3.7,5.6c0.3,1.6,0.3,3.2,0.3,4.9c0,29.9,0,59.8,0,89.7C97.1,128,97,129,97,130z"/>
		<path class="st4" d="M74.9,74c1.4-2.9,3-5.7,4.7-8.4c0.6-0.8,1-0.5,1.3,0.2c0.4,0.9,0.3,1.8,0.3,2.8c0,27.3,0,54.5,0,81.8
			c0,1.3-0.2,2.6-0.8,3.8c-1.6,2.6-2.8,5.4-4.7,7.8c-1.4-0.8-0.9-1.9-0.3-2.8c0.7-1.1,0.8-2.1,0.2-3.2c-0.3-0.5-0.3-1.2-0.2-1.8
			c0.2-4.6,0.1-9.3,0-13.9c0-4-0.2-8,0.2-12.1c0.3-3.8-0.5-7.5-0.6-11.3c-0.1-1.7,0.7-3.4,0.6-5.1c-0.3-9,0.4-17.9-0.2-26.9
			c-0.2-2.4,0.3-4.8,0.3-7.2C75.6,76.5,75.4,75.2,74.9,74z"/>
		<path class="st5" d="M58.6,99.6c0.7,0.7,0.4,1.6,0.4,2.5c0,47.6,0,95.1,0,142.7c0,0.9,0.7,2.3-1,2.7c-0.9-0.2-1.6-0.8-2.4-1.4
			c0.8-6,0-12.1,0.3-18.1c0.1-3.5-0.2-7,0-10.4c0.2-4.6-0.5-9.1-0.2-13.7c0.8-11.1,0-22.2,0.2-33.3c0.1-10.1,0-20.2,0.1-30.2
			c0-9.7-0.2-19.4,0.1-29.1c0.1-2.5,0-5-0.2-7.4C56.5,102.3,57.5,100.9,58.6,99.6z"/>
		<path class="st6" d="M53.3,244.7c-0.9-0.2-1.6-0.8-2.3-1.4c0-9.9-0.1-19.8,0-29.7c0.1-9.1,0-18.3,0.2-27.4c0.1-4.3-0.3-8.7-0.1-13
			c0.3-6.3,0-12.5,0-18.8c0-4.2,0.2-8.3-0.1-12.5c-0.2-2.6,0.4-5.2,0.2-7.9c-0.4-5.9,0.1-11.9-0.3-17.9c-0.1-1.8,0.2-3.6,0-5.3
			c0.8-1.2,1.7-2.4,2.5-3.7c1.3,0.3,1.3,1.4,1.5,2.4c0.2,1.1,0.1,2.3,0.1,3.5c0,37.6,0,75.2,0,112.7c0,5.3,0.2,10.6,0,15.8
			C55,242.8,55.4,244.5,53.3,244.7z"/>
		<path class="st0" d="M81.9,197c-1.9,2.5-3.9,5-5.8,7.5c-1.4,1.9-2.5,4-3.8,6.1c0-3.1-0.1-6.2,0-9.3c0.5-12.2,2.6-24,8.3-35
			c1-2,2-4,3.5-5.7c1.3,0,1.2,1.1,1.2,1.8c0,7.1,0.6,14.2-0.1,21.3c-0.2,2-0.5,4.1-1.6,6c-0.6,1-0.6,2.2-0.5,3.4
			C83.1,194.5,82.8,195.9,81.9,197z"/>
		<path class="st7" d="M98.2,266.5c2.4-15.5,7.2-30,17.6-42.1c0.6-0.8,1.2-1.6,2.1-2.1c1.4,0.4,1,1.6,0.9,2.5
			c-1.1,7.3-2.3,14.6-3.6,21.8c-0.3,1.9-0.2,3.9-1.5,5.5c-3.1,2.8-6.2,5.6-9.2,8.5c-2.4,2.2-4.3,4.9-5.7,7.8
			C97.4,268,98.1,267.2,98.2,266.5z"/>
		<path class="st7" d="M100.1,224.1c-2.2,2.6-4.5,5.1-6.7,7.7c-2.6,3-4.8,6.4-6.2,10.6c-0.3-0.7-0.5-0.9-0.5-1.2
			c0.9-15,3.3-29.6,11.3-42.7c1.1-1.8,2.2-3.8,3.8-5.2c1.4,0,1.1,1.1,1.1,1.8c-0.6,8.7-0.6,17.5-1.6,26.3
			C101.2,222.4,100.7,223.2,100.1,224.1z"/>
		<path class="st8" d="M50.9,110.7c0.6,0.1,1,0.3,0.8,1c-0.5,3.4-0.1,6.7,0.1,10.1c0.1,1.7-0.3,3.5-0.3,5.2c0,2.8,0.4,5.6,0.4,8.4
			c0,4-0.5,7.9-0.3,11.9c0.2,3.7,0,7.3,0.1,10.9c0,4.3,0.1,8.5,0,12.8c-0.1,4.2-0.3,8.5,0.2,12.8c0.3,3,0,6.1,0,9.1
			c0,4.2-0.2,8.5,0,12.7c0.2,3.6-0.2,7.1-0.2,10.7c0,3.2,0.4,6.5,0.1,9.8c-0.3,4.3-0.6,8.6,0.2,12.9c0.3,1.4-0.1,2.9-1,4.2
			c-0.8-0.2-1.4-0.6-1.9-1.2c-0.7-1-0.7-2.2-0.7-3.4c0-40.6,0-81.2,0-121.8c0-0.9,0.2-1.9,0.3-2.8C49.2,112.8,49.9,111.7,50.9,110.7
			z"/>
		<path class="st9" d="M74.9,74c1.3,0.1,1.4,1,1.4,2c0,7.2-0.2,14.3-0.1,21.5c0,2,0.3,4.2,0.1,6.1c-0.4,4,0.8,8.1-0.7,12.1
			c-0.3,0.8-0.3,1.5,0.2,2.2c0.2,0.2,0.4,0.6,0.3,0.8c-1,4.5,0.2,9-0.1,13.5c-0.4,5.9,0,11.9,0.3,17.9c0.1,2.4-1.7,5.2,0.9,7.4
			c0.4,0.3-0.4,0.5-0.6,0.8c-0.6,1.2-1.9,2.2-0.9,3.8c-0.8,2.2-1.8,4.3-3.2,6.2c-0.9-0.9-0.8-2-0.8-3.1c0-17.8,0-35.7,0-53.5
			c0-10.2,0-20.3,0-30.5c0-0.5,0-1.1-0.2-1.6C72.4,77.6,73.6,75.7,74.9,74z"/>
		<path class="st10" d="M53.3,244.7c1.5-0.6,1.1-1.9,1.1-3c0-27.7,0-55.4,0-83.1c0-15.8,0-31.7,0-47.5c0-1.4,0-2.8-0.9-4
			c0.6-1.2,1.4-2.3,2.3-3.3c1.5,1,0.9,2.5,0.9,3.8c-0.1,5.3,0.5,10.5-0.3,15.8c-0.2,1.1,0.4,2.3,0.4,3.4c0,10.3,0.1,20.5,0,30.8
			c-0.1,6.5,0.1,13,0,19.5c-0.2,7.4,0.3,14.8,0.1,22.3c-0.1,4.1-0.8,8.3-0.3,12.3c0.4,3.6,0.1,7.2,0.1,10.8
			c0.1,4.2,0.3,8.4-0.1,12.7c-0.2,2.8,0.1,5.7,0.2,8.6c0,1,0,1.9-1,2.4C54.7,245.9,54,245.3,53.3,244.7z"/>
		<path class="st11" d="M38.1,129.9c0.8-1.2,1.6-2.5,2.4-3.7c1.2-0.4,1.2,0.6,1.4,1.3c0.2,0.8,0.1,1.7,0.1,2.6
			c0,33.8,0,67.6,0,101.3c0,0.9,0.1,1.9-0.2,2.8c-0.2,0.7-0.4,1.6-1.5,1.2c-0.9-0.4-1.5-1.1-2-1.8c-0.5-1.6-0.7-3.2-0.7-4.8
			c0-31.6,0-63.2,0-94.8C37.7,132.5,37.8,131.2,38.1,129.9z"/>
		<path class="st12" d="M80.5,154.2c0-28.9,0-57.8,0-86.7c0-0.6,0.9-2-0.9-1.9c1.1-2.2,2.2-4.3,3.3-6.5c1.3,0.1,1.4,1.1,1.5,2
			c0.2,1,0.1,2,0.1,3c0,26.8,0,53.6,0,80.3c0,1.6,0,3.3-0.7,4.8C83,151.1,81.8,152.7,80.5,154.2z"/>
		<path class="st13" d="M48.7,114c0.7,0.5,0.5,1.2,0.5,1.9c0,41.8,0,83.6,0,125.4c0,0.2,0,0.5,0,0.7c-1.1-0.5-2.1-1.1-2.9-2
			c-0.2-0.8-0.2-1.5-0.2-2.3c0-38.4,0-76.7,0-115.1c0-1.5,0.1-3-0.3-4.4C46.6,116.7,47.4,115.2,48.7,114z"/>
		<path class="st14" d="M64.2,91.2c1.5,0.5,0.8,1.7,0.8,2.6c0,29.1,0,58.2,0,87.2c0,0.9,0,1.7,0,2.6c-0.9,3-1.8,6-2.8,9
			c0-4.9,0-9.7-0.1-14.6c0-10.8,0-21.7,0-32.5c0-8.4,0.2-16.9-0.1-25.3c-0.2-5.8,0.4-11.6-0.2-17.5c-0.1-1.5,0-3.2,0.2-4.8
			c0.1-0.9,0.3-1.9-0.8-2.5C62.3,94,63.3,92.6,64.2,91.2z"/>
		<path class="st15" d="M85.3,53.9c0.7-2.3,1.4-4.5,2.5-6.6c1.1,0,1.1,0.9,1.3,1.6c0.2,0.9,0.1,1.9,0.1,2.8c0,28.7,0,57.3,0,86
			c0,1.6,0,3.3-0.8,4.8c-0.5,1.3-1.2,2.4-2.3,3.3c-1.1-0.1-1.1-1-1.2-1.7c-0.2-1-0.1-2-0.1-3c0-27.3,0-54.7,0-82
			C84.8,57.3,85,55.6,85.3,53.9z"/>
		<path class="st16" d="M93.1,26.9c-0.8,0.7-0.5,1.6-0.5,2.4c0,34.6,0,69.1,0,103.7c0,0.9-0.4,1.9,0.6,2.6c-0.6,1.2-1.3,2.4-2.3,3.3
			c-1.1,0-1.1-0.9-1.3-1.6c-0.2-1-0.1-2-0.1-3c0-29.5,0-59,0-88.5c0-2.8,0.3-5.6,0.5-8.4c0.2-3.1-0.1-6.2-0.3-9.3
			c-0.1-0.9-0.2-1.9,0-2.8c0.2-0.7,0.3-1.6,1.5-1.2C92.1,24.8,92.6,25.9,93.1,26.9z"/>
		<path class="st17" d="M33.3,228.3c0.8-0.7,0.5-1.6,0.5-2.4c0-28.6,0-57.1,0-85.7c0-0.8,0.3-1.7-0.5-2.4c0.7-1.5,1.4-2.9,2.4-4.2
			c0.8,0.1,0.9,0.8,1,1.4c0.2,2.3,0.7,4.6,0.6,7c-0.6,9.1,0,18.1-0.1,27.2c-0.1,5-0.3,10.1-0.1,15.1c0.1,6-0.3,11.9,0.2,17.9
			c0.3,3.5-0.1,7-0.4,10.5c-0.3,4.3,0.6,8.5,0.5,12.8c-0.1,1.3-0.1,2.6-0.5,3.9c-0.2,0.7-0.2,1.6-1.4,1.5
			C34.4,230.2,33.8,229.3,33.3,228.3z"/>
		<path class="st18" d="M102.1,122.5c-0.6,1.4-1.4,2.6-2.5,3.6c-1.1,0.4-1.3-0.4-1.5-1.2c-0.2-0.9-0.2-1.8-0.2-2.8
			c0-27.4,0-54.8,0-82.2c0-1.3-0.8-3.2,1.3-3.9c1.1,1.3,2,2.7,2.7,4.2c0.3,2.4,0.2,4.8,0.2,7.2c0,24,0,48,0,72
			C102.3,120.5,102.1,121.5,102.1,122.5z"/>
		<path class="st19" d="M45.8,118.2c0.4,0,1-0.4,1,0.4c0,0.5,0,1.1,0,1.6c0,39,0,78.1,0,117.1c0,0.9,0.4,1.9-0.6,2.6
			c-1.1-0.4-1.8-1.2-2.7-1.9c0.6-1.3,0.6-2.7,0.6-4.1c0-36.3,0-72.7,0-109c0-1.3,0-2.6-0.3-3.9C44.3,120,45,119,45.8,118.2z"/>
		<path class="st20" d="M99.3,36.1c-0.9,0.6-0.6,1.5-0.6,2.4c0,28.5,0,57,0,85.4c0,0.8-0.5,2,0.9,2.3c-0.7,1.4-1.5,2.7-2.6,3.8
			c-0.9-0.6-0.6-1.5-0.6-2.3c0-31,0-62,0-93c0-0.7-0.3-1.6,0.4-2.2C97.8,33.6,98.6,34.8,99.3,36.1z"/>
		<path class="st21" d="M102.1,122.5c-0.9-0.6-0.6-1.5-0.6-2.3c0-25.9,0-51.8,0-77.7c0-0.7-0.2-1.6,0.5-2.1c0.9,1.4,1.8,2.8,2.7,4.2
			c0.3,1.7,0.3,3.4,0.3,5.1c0,21.5,0,42.9,0,64.4c0,1.6,0,3.1-0.3,4.6C104.1,120.1,103.2,121.4,102.1,122.5z"/>
		<path class="st22" d="M43.9,121c1.7,0.3,1.1,1.7,1.1,2.6c0,20.5,0,41,0,61.5c0,16.9,0,33.7,0,50.6c0,1,0.5,2.4-1.4,2.3
			c-0.5-0.1-0.8-0.5-1-0.9c-0.2-1.1-0.3-2.1-0.3-3.2c0-36.1,0-72.2,0-108.2c0-0.8,0.2-1.5,0-2.3C42.8,122.6,43.4,121.8,43.9,121z"/>
		<path class="st23" d="M91.1,24.1c-1.5,0.4-0.8,1.7-0.8,2.6c0,30.4,0,60.8,0,91.2c0,6.2,0,12.4,0,18.6c0,0.8-0.3,1.7,0.6,2.3
			c-0.6,1.4-1.4,2.6-2.5,3.6c0-30.9,0-61.9,0-92.8c0-0.8,0.3-1.7-0.6-2.3c0.5-2.4,1.1-4.8,1.5-7.3c1.3-8.2-0.3-15.8-4.1-23.4
			c1.9,0.6,2.4,2.2,3.2,3.4C89.4,21.3,90.3,22.7,91.1,24.1z"/>
		<path class="st24" d="M35.4,230.7c1.1-1.4,1.1-3,1.1-4.6c0.1-3.1-0.2-6.2-0.4-9.3c-0.4-5.2,1-10.3,0.3-15.5
			c-0.6-4.1,0.3-8.2,0-12.3c-0.2-2.4-0.9-5,0.1-7.5c0.6-1.7-0.6-3.5-0.4-5.3c0.4-3.3,0.3-6.6,0.4-9.9c0.2-3-0.5-5.9-0.3-9
			c0.3-3.6,0.2-7.3,0.2-11c0-4.3,0.3-8.6-0.7-12.8c0.8-1.2,1.6-2.5,2.4-3.7c0.6,0.8,0.3,1.8,0.3,2.7c0,32.4,0,64.7,0,97.1
			c0,1.2,0.8,2.5-0.1,3.7C37.1,232.8,36.3,231.8,35.4,230.7z"/>
		<path class="st25" d="M106.8,47.8c1.1,1.3,2,2.7,2.7,4.3c0.7,1.4,0.8,2.8,0.8,4.3c0,17.1,0,34.2,0,51.3c0,1.4-0.1,2.8-0.8,4.1
			c-0.6,1.6-1.8,2.8-2.8,4.2c-1,0-1-0.8-1.1-1.5c-0.2-0.8-0.1-1.5-0.1-2.3c0-20.1,0-40.3,0-60.4c0-0.8,0-1.6,0.1-2.3
			C105.7,48.7,105.7,47.8,106.8,47.8z"/>
		<path class="st26" d="M42.3,123.4c1.1,0.3,0.8,1.2,0.8,1.9c0,36.7,0,73.3,0,110c0,0.7,0.2,1.4-0.5,1.9c-1-0.4-1.7-1.1-2.3-1.9
			c1.5-0.4,0.9-1.6,0.9-2.5c0-15.2,0-30.4,0-45.6c0-19.5,0-38.9,0-58.4c0-0.9,0.6-2.1-0.8-2.6C41.1,125.3,41.7,124.3,42.3,123.4z"/>
		<path class="st27" d="M71.6,79.5c0.4-0.1,1-0.3,1,0.4c0,0.6,0,1.2,0,1.9c0,28.8,0,57.5,0,86.3c-0.5,1.6-1.2,3-2.3,4.3
			c-0.6-0.9-0.5-1.9-0.5-2.9c0-6.4,0-12.8,0-19.2c0.8-5.8,0.4-11.7,0.3-17.6c-0.1-3.8,0.2-7.6,0.1-11.3c-0.1-8.3,0.3-16.5-0.1-24.8
			c-0.2-3.5,0.1-7.1-0.3-10.6c0-0.2,0-0.3,0-0.5c0.5-1,0.6-1.9-0.1-2.9C70.1,81.6,70.7,80.5,71.6,79.5z"/>
		<path class="st28" d="M85.3,53.9c0.6,0.8,0.3,1.8,0.3,2.7c0,28.8,0,57.5,0,86.3c0,1-0.4,2,0.5,2.9c-0.6,1.3-1.2,2.5-2.3,3.4
			c0-16.6,0-33.2-0.1-49.8c0-12.6,0-25.1,0-37.7c0-1,0.3-2.1-0.8-2.7C83.7,57.4,84.5,55.6,85.3,53.9z"/>
		<path class="st29" d="M148.8,179.4c-0.7,1.3-1.6,2.4-2.8,3.3c-1.6-0.3-1.3-1.7-1.3-2.7c0.1-6.3-0.1-12.6,0.3-18.8
			c0.4-7,0.2-14,0.1-21c0-2.4,0.2-4.8,0.7-7.1c2.1-8.2,2.9-16.4,2.4-24.8c-0.2-3.3-0.6-6.6-1-9.9c-0.1-0.7-0.8-1.5,0.5-1.9
			c0.5,1.1,1,2.1,1.5,3.2c0.2,1.5,0.1,2.9,0.1,4.4c0,14.7,0.3,29.4-0.1,44C149,158.5,149.3,168.9,148.8,179.4z"/>
		<path class="st12" d="M139.8,188.7c-1.2,1.3-2.6,2.5-4.2,3.3c-0.7-0.6-0.7-1.4-0.7-2.1c0-3.7-0.3-7.4,0.3-11.1
			c0.3-2.5,0.1-5.1,0.2-7.7c0.1-4.8-0.3-9.6,0.4-14.4c0.2-1.1,0.2-2.3-0.1-3.5c1.4-2.2,2.8-4.4,4.2-6.5c1.6,0.3,1.2,1.7,1.2,2.6
			c0,5.5-0.2,11-0.4,16.5c-0.2,6.5-0.1,13,0,19.6C140.5,186.5,140.5,187.7,139.8,188.7z"/>
		<path class="st30" d="M106.1,170.9c-0.2,0.1-0.3,0.3-0.5,0.4c-0.2,0.4-0.5,0.8-1,0.5c-0.3-0.6-0.1-1.1,0-1.6c0.4-1,0.2-2,0.2-3
			c0-2.9,2-5.1,2.8-7.8s2.2-5.3,3-8c0.3-1,0.6-2,0.5-3c-0.8-6.4-0.2-12.9-0.9-19.3c-0.1-0.7-0.2-1.4-0.4-2c1.9-2.9,3.9-5.9,5.8-8.8
			c1.5-0.5,1.4,0.8,1.5,1.6c0.2,1.8,0.1,3.7,0,5.5c0,1.2,0,2.6-0.7,3.6c-2.1,3.1-2.1,6.7-1.5,10.1c1,6-0.2,11.6-2.5,17
			c-1.3,3-1.3,6.2-2.1,9.2c-0.2,0.8-0.4,1.7-0.9,2.3c-0.3,0.4-0.6,0.8-1,1.3C107.7,169.6,107.2,170.6,106.1,170.9z"/>
		<path class="st12" d="M156,185.8c1.6-2,3.2-4,4.8-6c1.3,0.3,0.8,1.2,0.8,2c-0.7,8.7-2,17.4-3.1,26.1c-0.5,3.6-0.5,7.3-1.3,10.8
			c-0.2,1.1-0.4,2.1-1,3.1c-1.4,1.2-3,2.2-4.7,2.9c-0.6-1-0.2-2-0.1-2.9C152.9,209.8,154.5,197.8,156,185.8z"/>
		<path class="st31" d="M121.1,154.5c-1.6,2.3-3.1,4.7-5.2,6.6c-1.8,0.2-1.3-1.2-0.9-1.8c3.6-5.7,2.7-12.3,3.7-18.5
			c0.6-3.3,1.4-6.6,2.2-9.9c1-4.2,1.6-8.5,1.9-12.8c0.6-6.7,1.5-13.3,1.6-20.1c1.5-7.2,1.7-14.5,1.4-21.8c0.3-0.1,0.5-0.1,0.7,0.2
			c0.7,1.4,0.4,3,0.4,4.5c0.1,2-0.3,4,0.3,6c0.2,1,0.2,2.1,0.2,3.1c0,1.2-0.2,2.4,0.1,3.6c0.2,1.1,0,2.3,0,3.4
			c-0.3,0.7-0.5,1.5-0.5,2.3c-0.8,9.6-1.1,19.3-3.1,28.7c-0.9,4.2-1.5,8.3-1.9,12.5c0,0.5-0.2,0.9-0.2,1.4c0,0.8-0.4,1.9,0.5,2.3
			c0.8,0.4,1.3-0.6,1.9-1c2.5-1.5,3.1-1.3,4.9,2c-0.1,0.9-0.9,1.3-1.5,1.8c-2.2-1-2.3-1-3.1,1.5c-0.4,1.1-0.8,2.2-1.7,3
			C121.9,152.4,121.6,153.5,121.1,154.5z"/>
		<path class="st29" d="M167.8,168c2.1-5.3,3.6-10.7,4.7-16.2c1,1,0.7,2.2,0.6,3.3c-2.1,18.3-4.1,36.6-6.2,54.8c-0.1,1,0,2,0,3
			c-1,1.3-2.1,2.5-3.5,3.3c-1.4-0.2-1.2-1.3-1.1-2.1c0.8-5.8,1.5-11.6,2-17.5c0.6-6,1.6-11.9,2.1-17.9
			C166.6,175.2,166.8,171.5,167.8,168z"/>
		<path class="st32" d="M131.9,72.1c1,1.1,1.8,2.4,2.3,3.8c0.8,1.8,0.6,3.8,0.8,5.7c0.6,5.6,0.6,11.2,1.3,16.8c0.1,0.6,0,1.2,0,1.8
			c-0.1,1.1,0.2,2.3-0.9,3.3c-1.3-1.5-0.8-3.6-2.2-5.4c-0.1,5.9-2,11.2-2.1,16.8c-0.5,6-0.7,12-1.9,17.9c-0.1,0.4-0.2,0.8-0.5,1.2
			c-0.6,0.5-1.3,1.2-2,0.5c-0.7-0.6-0.6-1.5-0.6-2.4c0.4-4.8,1-9.6,1.5-14.4c0.8-8.2,1.9-16.5,2.6-24.7c0.1-1.1-0.1-2.4,1.2-3
			c0.5-0.3,0.2-1,0.2-1.5c-0.4-4.2-0.4-8.4-0.7-12.5C130.8,74.5,130,72.9,131.9,72.1z"/>
		<path class="st33" d="M157.1,168.2c-0.4,1.3-1.3,2.4-2.3,3.4c-1.2-1.5-1.3-3.4-1.2-5.1c0.3-3.2-0.1-6.4,0-9.5
			c0.2-6.7-0.2-13.3-0.1-20c0.2-8.6-0.1-17.2,0-25.9c0-1.1-0.4-2.6,1.2-3.1c0.9,1.1,1.6,2.2,1.9,3.6c0.5,1.7,0.7,3.5,0.7,5.3
			c0,8-0.2,16,0,23.9c0.2,7.8,0.4,15.5,0.4,23.3C157.8,165.5,157.7,166.9,157.1,168.2z"/>
		<path class="st33" d="M175.3,203.6c-0.4,0.9-1.1,1.7-1.9,2.3c-1.8-0.8-1.2-2.4-1-3.6c0.6-5.8,1.3-11.5,1.9-17.3
			c1-9.9,2-19.9,3.1-29.8c0.3-3.2,0.8-6.5,1.1-9.7c0.1-0.9,0.1-2.1,1.4-2.5c0.6,0.8,0.9,1.7,1.1,2.7c1.5,5.3-0.1,10.4-0.5,15.6
			c-0.3,4.1-0.8,8.1-1.2,12.2c-0.6,5.4-1.1,10.7-1.7,16.1c-0.4,3.5-0.6,7.1-1,10.6C176.3,201.4,176,202.6,175.3,203.6z"/>
		<path class="st34" d="M166.8,212.9c-1.3-0.3-0.9-1.4-0.8-2.1c0.7-6.3,1.5-12.5,2.2-18.8c0.7-6.1,1.3-12.3,2-18.4
			c0.5-4.7,1.2-9.3,1.7-14c0.2-2.6,0.9-5.2,0.6-7.8c1-7.1,1.2-14.3,1.3-21.5c1,2.2,2,4.4,3,6.7c-1.1,7.4-1.8,14.8-2.6,22.1
			c-1,8.2-1.8,16.3-2.7,24.5s-1.8,16.3-2.8,24.5c-0.1,1,0,2,0.1,3C168.2,211.8,167.5,212.4,166.8,212.9z"/>
		<path class="st35" d="M106.8,47.8c-0.9,0.6-0.6,1.5-0.6,2.3c0,21.2,0,42.4,0,63.6c0,0.7-0.3,1.6,0.5,2.2c-0.6,0.9-1.3,1.9-1.9,2.8
			c-0.7-0.7-0.4-1.6-0.4-2.4c0-23.1,0-46.2,0-69.3c0-0.8-0.3-1.7,0.4-2.4C105.4,45.7,106.1,46.7,106.8,47.8z"/>
		<path class="st36" d="M61.8,249.3c0.8-0.7,0.5-1.7,0.5-2.6c0-11.3,0-22.7,0-34c0-0.9-0.4-1.9,0.5-2.6c1.2,4,2.5,8,3.7,12.1
			c0.5,8.9,0.1,17.8,0.2,26.8c0,0.8,0,1.7-0.8,2.4C64.4,250.9,63,250.3,61.8,249.3z"/>
		<path class="st37" d="M131.9,72.1c-0.9,1-0.7,2.3-0.4,3.3c0.9,3.7,0,7.4,0.8,11.1c0.3,1.4,0.1,2.8-1.1,4.3c-1,1.3-0.6,3.6-0.7,5.4
			c-0.3,7.1-1.5,14.1-2.3,21.2c-0.6,5.6-1,11.2-1.6,16.9c0.8-0.3,1.4-0.4,1.9-0.6c0.7,0.9,0.2,1.7-0.2,2.6c-0.5,0.8-1.1,1.5-2,1.9
			c-0.6,0.3-1.1,1-1.9,0.5c-0.7-0.4-0.9-1.2-0.7-1.8c0.5-1.9,0.1-3.9,0.6-5.7c0.9-7.6,1.8-15.2,2.6-22.8c0.7-7.1,1.5-14.2,1.8-21.3
			c0.3-5.4-0.4-10.8-0.6-16.3c0-0.9-0.7-2.1,0.9-2.4C130.3,69.4,131.2,70.7,131.9,72.1z"/>
		<path class="st38" d="M144.4,184.4c-0.8,1.3-2,2.1-3.1,3c-0.9-0.8-0.7-2-0.7-3.1c-0.3-12.6,0.5-25.3,0.4-37.9
			c0-1.1,0.5-2.1,0.7-3.2c0.6-1.4,1.2-2.8,1.9-4.2c1.7,0.3,1.7,1.6,1.7,2.9c0,5.3,0.2,10.7,0,16c-0.3,7.8-0.5,15.6-0.4,23.4
			C144.7,182.5,144.8,183.5,144.4,184.4z"/>
		<path class="st39" d="M154.8,108c-0.7,0.6-0.5,1.4-0.5,2.2c0,13-0.2,26.1,0.1,39.1c0.1,4-0.4,7.9,0.2,12c0.5,3.4-0.5,6.9,0.2,10.3
			c-0.1,0.5-0.4,1-0.8,1.3c-2,1.1-2.1-0.4-2.2-1.6c-0.2-3.5,0-7,0-10.4c-0.1-8.8-0.1-17.5,0-26.3c0.1-8.6-0.1-17.2,0-25.7
			c0-1.2-0.4-2.8,1.5-3.1C154,106.3,154.5,107.1,154.8,108z"/>
		<path class="st23" d="M163.1,176.4c0.9-1.6,1.6-3.3,2.8-4.7c0.8,0.7,1,1.8,0.9,2.8c-0.7,6-1.4,12-2.2,17.9
			c-0.8,6.2-1.5,12.4-2.2,18.6c-0.2,2.2-0.6,4.3-0.7,6.5c-1.1,1.1-2.3,2.1-3.7,2.8c-0.7-0.7-0.6-1.5-0.6-2.4c0.5-5.7,1.4-11.3,2-17
			c0.7-7.1,1.9-14.2,2.5-21.3C162.1,178.5,162.6,177.5,163.1,176.4z"/>
		<path class="st34" d="M148.8,179.4c-0.9-0.6-0.6-1.5-0.6-2.3c0-7.5-0.3-15,0-22.5c0.8-17.5,0.2-35.1,0.4-52.6
			c0-0.8-0.3-1.7,0.6-2.4c0.7,0.7,1.3,1.4,1.7,2.4c-0.3,0.7-0.1,1.4-0.1,2.1c0,24.3-0.2,48.7,0.1,73
			C150.2,177.8,149.5,178.6,148.8,179.4z"/>
		<path class="st10" d="M97.8,143c0.9-1.8,2.3-3.2,3.7-4.7c1.3,0.1,1.1,1.2,1.2,1.9c0.4,2.5,0.5,5.1,0.5,7.6c0,4.7-0.3,9.5,0.4,14.2
			c0.4,2.6-0.8,4.7-2.1,6.7c-1.9,3.1-3.4,6.5-3.5,10.2c-0.5,1.8-1.9,2.9-3.1,4.2c-0.3,0.4-0.9,1-1.5,0.1c0.3-3.7,1.2-7.1,3.5-10.1
			c1.5-1.9,1.7-4.3,1.7-6.7C98.3,158.6,98,150.8,97.8,143z"/>
		<path class="st10" d="M119.8,204.2c-1.2,1.3-2.3,2.7-3.8,3.7c-1.4-2.2-0.7-4.7-0.6-7c0.3-7.9,1.1-15.9,0.7-23.8
			c1.3-1.9,3-3.5,4.6-5.1c1.5,0.4,1.1,1.7,1.1,2.7c-0.5,8.5-0.9,17-0.8,25.5C120.9,201.5,120.9,203,119.8,204.2z"/>
		<path class="st39" d="M179.9,143c-1.3,3.9-1.1,8-1.7,12.1c-0.8,5.2-1,10.6-1.8,15.8c-0.6,3.8-0.7,7.7-1.1,11.5
			c-0.5,5-1.3,9.9-1.6,14.9c-0.2,2.9-1.5,5.7-0.2,8.6c-0.4,0.8-0.9,1.5-1.8,1.9c-1.5,0-1.6-1.1-1.5-2.1c1.3-8.3,1.7-16.6,2.8-24.9
			c0.5-3.8,0.6-7.7,1.2-11.5c0.7-5.2,1.1-10.4,1.7-15.7c0.4-3.5,0.9-7.1,1.1-10.6c0.1-1.1-0.1-2.4,1.6-2.5
			C179.3,141.3,179.6,142.1,179.9,143z"/>
		<path class="st10" d="M134.7,234.9c-1.4,1.1-2.6,2.5-4.2,3.3c-0.7-0.6-0.5-1.4-0.4-2.2c1.1-8,2.3-16.1,3.5-24.1
			c0.2-1.5,0.2-3.1,0.5-4.6c1.3-1.7,3-2.9,4.7-4.2c1.5,0.4,0.9,1.5,0.9,2.4c-0.2,4-1.2,7.8-1.8,11.7c-0.7,5-1.3,10-2.1,15
			C135.7,233.3,135.6,234.2,134.7,234.9z"/>
		<path class="st40" d="M127.2,97.3c-0.6-1.1,0-2.2,0-3.3c-0.6-1.2,0.2-2.5-0.5-3.7c0-1.1,0-2.2,0-3.3c-0.6-2,0.2-4.1-0.4-6
			c0-1.6,0-3.1,0-4.7c-0.8-3.5-0.7-7.1-1.3-10.5c-0.1-0.7-0.3-2.1,1.3-1.1c0.3,0.6,1.1,0.9,1,1.7c1.2,3.1,0.8,6.4,1,9.6
			c0.3,4.7,0.8,9.4,0.6,14.2c-0.1,3.9-0.6,7.8-0.9,11.8c-0.6,7.2-1.5,14.3-2.3,21.5c-1.5,3.9-1.3,8.1-2.1,12.2
			c-0.2,1.1,0,2.3-0.3,3.4c-0.2,0.8-0.2,1.6,1,1.5c0.3-0.1,0.6-0.3,0.9-0.4c0.6-0.3,1.3-0.5,1.9-0.9c0.8-0.6,1.5-2,2.7-1.2
			s2.4,1.8,2.1,3.6c-0.2,0.8-0.9,1.3-1.5,1.8c-0.2,0.1-0.3,0.1-0.4,0c-1.9-2.5-2.7-2.5-5.1,0.1c-0.9,1-1.8,2.6-3.2,2.1
			c-1.2-0.5-0.7-2.3-0.5-3.4c0.8-4.5,0.9-9,2-13.6c1.5-6.1,2.2-12.5,2.2-19c0-3.6,0.9-7.3,1.3-10.9
			C126.7,98.2,126.8,97.7,127.2,97.3z"/>
		<path class="st14" d="M141.7,230.2c-1.1,1.4-2.7,2-4.2,2.8c-0.4-2,0.2-4,0.5-5.9c1.3-8.1,2.2-16.2,3.5-24.3c0.1-0.7,0.3-1.4-0.1-2
			c1.5-1.4,3-2.9,4.4-4.3c1.4,0.1,1.1,1.1,1,1.9c-0.7,5.9-1.3,11.9-2.4,17.8c-0.5,2.8-0.6,5.6-1.1,8.3
			C142.9,226.4,142.9,228.5,141.7,230.2z"/>
		<path class="st41" d="M168.7,211c-1.5-0.4-0.9-1.7-0.8-2.5c0.4-4.4,1-8.7,1.5-13.1c0.6-4.9,1.1-9.8,1.7-14.7
			c0.6-4.9,0.8-9.8,1.7-14.7c0.6-3.5,0.8-7.1,1.1-10.6c0.6-5.8,1.3-11.7,1.9-17.5c0.1-0.7,0.4-1,1-1.1c0.5,0.5,0.8,1.2,0.9,1.9
			c-0.4,3.5-0.7,7-1.1,10.5c-0.6,5-1.1,10-1.7,14.9c-0.8,6.7-1.4,13.5-2.2,20.3c-0.6,5.1-1,10.3-1.6,15.4c-0.2,1.9-0.4,3.8-0.8,5.7
			c-0.2,1-0.8,2.3,1,2.7C170.6,209.4,169.7,210.2,168.7,211z"/>
		<path class="st1" d="M97.3,179.3c-0.3-4.7,2-8.6,4.4-12.3c0.9-1.5,1.5-3.1,1.2-4.8c-0.9-5.8-0.2-11.6-0.5-17.4
			c-0.1-2.2-0.1-4.4-0.9-6.5c0.5-1.1,1.3-2,2.2-2.8c1.9-1.1,1.8,0.6,1.8,1.5c-0.1,3.6,0.5,7.1,0.6,10.7c0,4.1-0.2,8.2,0.2,12.3
			c0.2,2.4-0.4,4.7-1.9,6.7c-1.7,2.1-1.3,4.8-1.8,7.3C101.5,176.4,100.1,178.5,97.3,179.3z"/>
		<path class="st42" d="M156,185.8c1.5,2.1,0.2,4.2-0.1,6.2c-1,8.2-2.3,16.3-3.1,24.5c-0.3,2.7-0.9,5.5-1.3,8.2
			c-0.9,0.9-2.1,1.4-3.3,1.8c-0.2-3.3,0.6-6.4,0.9-9.6c0.8-8.1,2.4-16.2,3.1-24.4c0.1-0.8,0.3-1.7,0.1-2.5
			C153.4,188.5,154.6,187,156,185.8z"/>
		<path class="st42" d="M135.6,153.2c1.8,0.8,1,2.5,0.9,3.6c-0.8,6.2-0.1,12.5-0.4,18.7c-0.3,5.5-0.6,10.9-0.4,16.4
			c-0.9,1.1-2,1.8-3.3,2.3c-0.5-0.8-0.3-1.6-0.3-2.5c-0.3-10,0.7-20.1,0.5-30.1c0-1.3,0-2.6-0.3-3.9
			C133.2,156.2,134.3,154.7,135.6,153.2z"/>
		<path class="st14" d="M124.9,200c-0.6,0.8-1.5,1.4-2.4,1.8c-0.4-0.5-0.3-1.2-0.3-1.8c-0.2-10,0.5-19.9,1-29.9
			c0-0.5,0.2-1.1,0.3-1.6c0.8-1.2,1.6-2.3,2.7-3.3c1.7-0.4,1.6,0.9,1.6,1.8c0.2,2.3,0.3,4.7,0,7c-0.5,3.9-0.4,7.7-0.4,11.6
			c0,3.6-0.7,7.2-0.5,10.9C127,198.2,125.8,199,124.9,200z"/>
		<path class="st43" d="M102,174.3c0.2-3.3,0.1-6.7,2.8-9.4c0.9-0.9,0.7-3,0.9-4.6c2.9-4,2.2-8.6,2.1-13c-0.2-5.5-0.2-11-0.7-16.4
			c0.8-1.4,1.7-2.6,2.8-3.7c1.1-0.4,1,0.4,1.1,1.1c0.3,5.3,0.6,10.6,0.5,15.9c0,2.4,0.9,4.7,0.1,7.1c-1,2.9-2.3,5.6-3.2,8.5
			c-0.8,2.8-2.7,5.1-3,8c0.1,0.9-1.8,1.9,0,2.8c-0.2,0.4-0.3,0.9-0.5,1.3c-0.2,1-1,1.5-1.6,2.2C102.8,174.2,102.4,174.4,102,174.3z"
			/>
		<path class="st44" d="M132.2,157.9c1.7-0.4,1,1,1,1.6c-0.2,5.9,0.2,11.7-0.3,17.6c-0.5,4.8-0.1,9.6-0.1,14.4c0,1,0,2-0.5,2.9
			c-0.8,0.9-1.8,1.6-2.8,2.1c-0.9-1-0.8-2.3-0.7-3.5c0.6-10.2,0.2-20.4,0.9-30.6c0-0.4,0.1-0.8-0.1-1.1
			C130.4,160,131.2,158.8,132.2,157.9z"/>
		<path class="st43" d="M129.6,161.2c1.6,1,0.9,2.6,0.7,3.8c-0.8,5.4-0.2,10.8-0.4,16.3c-0.2,5.1-0.6,10.2-0.5,15.3
			c-1.3,1.5-3.1,2.3-4.6,3.5c1.3-1.6,1.3-3.4,1.4-5.4c0.2-9,0.6-18.1,0.9-27.1c0-0.8,0.5-2-1-2.2
			C127.2,163.8,128.4,162.5,129.6,161.2z"/>
		<path class="st44" d="M152.2,190c1,0.1,0.9,0.6,0.8,1.5c-0.8,7.1-1.8,14.1-2.8,21.2c-0.6,4.2-1,8.4-1.6,12.5
			c-0.1,0.4-0.3,0.9-0.4,1.3c-1,0.9-2.1,1.5-3.3,1.9c-0.7-1.4-0.3-2.8,0-4.1c1.7-10.3,2.8-20.7,4.2-31.1
			C150,192.1,151,191,152.2,190z"/>
		<path class="st43" d="M66,251.3c0-8.7,0-17.3,0-26c0-1.1-0.1-2.2,0.5-3.1c1.4,2.7,2.8,5.5,3.7,8.4c0.7,1.9,0.7,3.9,0.7,5.9
			c0,4.6,0.1,9.2-0.1,13.9c0,1.2,0.2,3-2.1,2.3C67.7,252.4,66.8,251.9,66,251.3z"/>
		<path class="st43" d="M149.1,193.3c1,1,0.6,2.2,0.5,3.3c-1.7,10.2-2.7,20.5-4.2,30.8c-0.1,0.4-0.2,0.7-0.4,1.1
			c-0.9,0.9-2,1.5-3.3,1.8c0.7-4.8,1.3-9.6,2-14.3c0.9-6.2,1.7-12.4,2.5-18.7c0-0.2-0.3-0.5-0.5-0.7
			C146.8,195.3,147.8,194.2,149.1,193.3z"/>
		<path class="st45" d="M109.5,111.8c0-19.9,0-39.8,0-59.7c1,1.2,1.9,2.5,2.4,4c0.4,4.7,0.1,9.5,0.2,14.2c0.1,11.8-0.1,23.6,0,35.4
			c0,0.9,0.1,1.9-0.3,2.7C111.2,109.7,110.5,110.8,109.5,111.8z"/>
		<path class="st46" d="M115,162.1c-0.5,0.7-0.9,1.5-1.8,1.8c-1.2-0.8-0.7-2-0.5-3c0.6-4.5,1.2-9.1,2.4-13.5c1.1-4,1.3-8.1,1.2-12.2
			c-0.1-2.5,0.1-4.9,1.3-7.2c0.6-1.1,1-2.5,0.4-3.8c1.5-4.4,1.6-8.9,1.7-13.5c0.6-1.8,1.3-3.5,2.3-5.2c1.1,0.4,1.1,1.4,1.2,2.3
			c0.1,1.9,0,3.9-0.4,5.8c-1,3.8-0.8,7.7-1.3,11.5c-0.6,4.5-1.1,9-2.3,13.5c-0.5,1.9-0.7,3.8-0.8,5.7c-0.3,5.3-1.1,10.5-3.4,15.3
			C114.5,160.5,114.8,161.3,115,162.1z"/>
		<path class="st47" d="M150.9,177c-1.1-0.3-0.8-1.2-0.8-1.9c0-23.8,0-47.5,0-71.3c0-0.7-0.3-1.6,0.8-1.9c0.5,0.5,0.9,1.1,1.1,1.8
			c-0.1,5.3-0.1,10.5-0.1,15.8c0,17.1,0,34.1,0,51.2c0,1.5,0.3,2.9,0.3,4.4C151.8,175.8,151.4,176.4,150.9,177z"/>
		<path class="st48" d="M113.3,58.4c0.9,0.8,1.4,1.8,1.8,3c0.6,1.5,0.8,3,0.8,4.5c0,10.9,0,21.9,0,32.8c0,1.5-0.2,2.9-0.7,4.3
			c-0.4,1.2-1,2.3-1.9,3.1c-1.1-0.8-1.1-2-1.1-3.1c0.1-11,0-22,0.1-33c0-2.9-0.1-5.7-0.1-8.6C112.1,60.3,111.9,59.1,113.3,58.4z"/>
		<path class="st49" d="M115,162.1c-1.1-0.7-1.1-1.6-0.4-2.6c1-1.5,1.2-3.1,1.4-4.8c0.3-2.1,0.8-4.2,1.4-6.2
			c0.7-2.6,0.3-5.2,0.9-7.8c0.9-4,1.4-8,2.1-12c0-0.1,0.1-0.1,0.1-0.2c0.3-6.8,1.6-13.4,2.1-20.1c0.1-0.9,0-1.9-0.5-2.7
			c0.8-2.5,1.6-5,2.4-7.4c0.1,2.2,0.7,4.4,0.5,6.7c-0.6,5.1-1.1,10.2-1.7,15.3c-0.3,3.1-0.6,6.1-1.2,9.1c-0.6,2.5-1,5.1-1.7,7.5
			c-0.8,2.8-1.3,5.7-1.5,8.6c-0.3,4.8-0.4,9.7-3.3,14c-0.4,0.6-1,1.4,0.3,1.8C115.8,161.6,115.4,161.9,115,162.1z"/>
		<path class="st50" d="M118.3,124.3c1.1,1.2,0.6,2.5,0,3.6c-1.4,2.4-1.6,4.9-1.4,7.6c0.2,3.3,0.2,6.6-0.6,9.7
			c-0.8,3.1-1.6,6.2-2,9.4c-0.4,3.1-1.4,6.2-1.1,9.3c-1,1.5-2.3,2.7-3.7,3.8c0-2.7,0.9-5.3,1.1-8c0.2-2.4,1.5-4.7,2.4-7
			c1.6-4.1,1.9-8.1,1.4-12.4c-0.4-3.8-1.2-7.7,1.4-11.2c0.7-1,0.8-2.1,0.8-3.3C117.3,125.5,117.2,124.2,118.3,124.3z"/>
		<path class="st51" d="M97.8,143c0.9,0.4,1,1.1,0.9,1.9c-0.2,6.4,0.2,12.8,0.5,19.2c0.2,4.3-0.6,8.2-3.3,11.7
			c-0.9,1.2-1.6,2.6-1.4,4.2c0.2,1.3-0.7,2.3-1,3.5c0.1,1.2-0.4,1.8-1.6,1.3c-0.7-1.7-0.4-3.4-0.3-5.1c0.1-0.5,0.3-1,0.6-1.4
			c1.2-1.4,1.9-3.1,2.8-4.7c0.5-0.6,0.6-1.2,0.6-1.9c0-8.6,0.2-17.2-0.1-25.8C96,144.7,96.8,143.7,97.8,143z"/>
		<path class="st52" d="M123.5,168.6c0.9,1.8,0.5,3.8,0.4,5.7c-0.7,8.2-1,16.4-0.9,24.6c0,1,0,2-0.4,3c-0.7,1-1.7,1.8-2.8,2.3
			c0.5-1.6,0.5-3.2,0.4-4.8c-0.3-7.4,0.7-14.9,0.5-22.3c0-1.7,1.2-3.4,0-5.2C121.5,170.7,122.4,169.6,123.5,168.6z"/>
		<path class="st53" d="M135.6,78.6c1.2,1.7,2,3.6,2.3,5.6c0.8,2.5,0.9,5.2,1.1,7.8c0.6,10.2,1.6,20.4,2.1,30.7c0,1,0,1.9-0.3,2.7
			c-0.3,1.7-0.8,3.2-1.9,4.5c-1.1-2.3-1-4.8-1.1-7.2c-0.6-9-1.1-17.9-1.8-26.9c-0.4-5-0.6-10-1-15.1C134.9,79.9,135,79.1,135.6,78.6
			z"/>
		<path class="st52" d="M141.3,200.8c0.3,0.3,1.3-1,1.1,0.6c-0.9,5.3-1.8,10.6-2.3,16c-0.4,4.1-1.6,8.2-1.6,12.4
			c0,1.2-0.6,2.2-0.9,3.3c-0.7,0.9-1.7,1.4-2.8,1.8c0.6-4,1.3-8,1.8-12.1c0.6-4.7,1.4-9.4,2.1-14.2c0.3-1.8,1.2-3.7,0.2-5.6
			C139.5,202.2,140.3,201.4,141.3,200.8z"/>
		<path class="st14" d="M107,130.8c1.1,0.1,1,1,1,1.8c0.2,7.3,0.3,14.6,0.5,21.9c0,2.3-0.6,4.4-2.8,5.8c-0.4-1.1-0.5-2.3-0.5-3.5
			c0.3-6.7-0.4-13.3-0.5-19.9c0-0.8,0.2-1.7-1.1-1.3C104.8,133.9,105.9,132.4,107,130.8z"/>
		<path class="st54" d="M115.1,103.1c0-13.9-0.1-27.8-0.1-41.7c1,1.2,1.9,2.6,2.4,4.1c0.6,1.5,0.8,3,0.8,4.5c0,8.1,0,16.2,0,24.3
			c0,1.6-0.2,3.2-0.8,4.8C116.9,100.6,116.2,101.9,115.1,103.1z"/>
		<path class="st53" d="M179.6,197.2c-0.4,1.5-1.3,2.7-2.3,3.8c-1.2-2.1-0.3-4.4-0.1-6.5c0.5-5.4,1-10.9,1.7-16.3
			c0.8-7,1.1-14,2.2-20.9c0.3-1.6,0-3.2,0.4-4.8c0.2-0.9,0.1-1.9,1-2.5c0.9,1.9,1.4,3.9,1.4,6.1c0.4,4.6-0.5,9.2-1,13.8
			c-0.5,5.7-1,11.3-1.7,17C180.7,190.2,180.7,193.8,179.6,197.2z"/>
		<path class="st53" d="M160.4,161.7c-0.2,1.5-1,2.8-1.9,4c-0.8-0.7-0.7-1.7-0.7-2.6c-0.2-15.1-0.6-30.3-0.5-45.4
			c0-1.1-0.3-2.4,0.7-3.3c1,1.7,1.7,3.5,1.9,5.5c0.5,1.7,0.7,3.5,0.6,5.3c0,9.5,0,18.9,0,28.4C160.6,156.4,160.8,159.1,160.4,161.7z
			"/>
		<path class="st55" d="M73.9,237.2c2.2,3.2,4.5,6.5,6.7,9.7c0.2,2.4,0.2,4.9,0,7.3c-0.1,1.3-0.6,2.3-2.2,1.7
			c-1.9-0.4-3.9-0.7-5.6-1.8c0.7-4.5,0.1-9,0.3-13.6C73.3,239.3,73,238.1,73.9,237.2z"/>
		<path class="st56" d="M140.8,125.4c-0.9-9-1.4-18.1-2-27.2c-0.3-4.7-1-9.3-0.8-14.1c1.4,2.6,2.4,5.4,2.8,8.3
			c1.4,8.2,2,16.6,2,24.9c0,0.3,0,0.6-0.2,0.9l0,0c-0.7,0.8,0.1,1.9-0.5,2.8C141.9,122.6,141.7,124.1,140.8,125.4z"/>
		<path class="st51" d="M134.2,207.3c1,1.2,0.6,2.5,0.4,3.8c-1.2,8.1-2.4,16.1-3.6,24.2c-0.1,1-0.3,2-0.4,3
			c-0.9,0.8-1.9,1.5-2.8,2.3c-0.8-0.8-0.4-1.7-0.3-2.6c1-8.3,2.5-16.5,3.7-24.7c0.2-1.1,0.4-2.3,0.4-3.4
			C132.2,208.7,133.1,207.9,134.2,207.3z"/>
		<path class="st51" d="M116,177c1.4,0.3,0.9,1.5,0.9,2.3c0.1,8.6-0.7,17.2-0.9,25.7c0,0.9,0,1.9,0,2.8c-0.9,0.9-1.9,1.9-2.8,2.8
			c-0.7-0.7-0.6-1.5-0.6-2.4c0.3-6.3,0.7-12.7,0.8-19c0.1-3.3,0.5-6.6,0.6-10C114.5,178.4,115.1,177.6,116,177z"/>
		<path class="st57" d="M87.8,155.5c0.7-1.2,1.3-2.4,2.5-3.2c1.4,0.3,1.2,1.5,1.2,2.4c0,8.5,0.2,17-0.1,25.5c-1.1,2.6-2,5.3-2,8.2
			c-0.1,0.5-0.5,0.9-0.9,1.2c-1.1,1.1-2.2,2.3-3.3,3.4c-0.8-2.2-0.3-4.5,0.1-6.7c2.4-2.6,3.1-5.7,2.9-9.2
			C87.9,169.9,88.6,162.7,87.8,155.5z"/>
		<path class="st58" d="M73.9,237.2c0,4.8,0,9.5,0,14.3c0,1,0.2,2.1-1,2.6c-1.5-0.1-2.8-0.8-4.1-1.5c1.6,0.1,1.4-1.1,1.4-2.1
			c0-6.7,0-13.3,0-20C71.7,232.6,72.9,234.8,73.9,237.2z"/>
		<path class="st59" d="M182.4,149.9c-1,9.7-1.9,19.4-2.9,29.1c-0.7,7.3-1.5,14.7-2.2,22c-0.4,1.1-1.1,1.9-1.9,2.6
			c0.8-3.8,0.9-7.6,1.4-11.5c0.6-5.7,1.3-11.3,1.8-17c0.3-3.3,0.7-6.6,1-9.9c0.5-6.5,1.8-13,1.5-19.6
			C181.6,147,182.3,148.3,182.4,149.9z"/>
		<path class="st60" d="M113.3,58.4c-1,1.8-0.5,3.7-0.5,5.5c-0.1,6.5,0,12.9,0,19.4s0,13.1,0,19.6c0,1.1,0.3,2.1,0.5,3.2
			c-0.3,0.9-0.7,1.7-1.4,2.2c-0.4-1.2-0.5-2.4-0.5-3.7c0-14.9,0-29.7,0-44.6c0-1.4,0.1-2.8,0.6-4.1C112.6,56.7,113,57.5,113.3,58.4z
			"/>
		<path class="st59" d="M158,114.5c0,10.6-0.1,21.3,0,31.9c0.1,6.5,0.5,12.9,0.4,19.4c-0.2,1-0.7,1.7-1.4,2.4c0-4.7,0.1-9.3,0-14
			c-0.5-14.2-0.5-28.4-0.4-42.6C157.4,112.4,157.9,113.4,158,114.5z"/>
		<path class="st61" d="M85.6,186.3c0,2.2,0.2,4.5-0.4,6.7c-0.9,1.5-2,2.9-3.4,4c0.6-1.5,0.5-3,0.5-4.6c0-1.4,0-2.6,1.1-3.8
			c1-1.2,1-3.1,1.1-4.5c0.6-7.6,0.1-15.2,0.1-22.8c0-0.2-0.3-0.5-0.5-0.7c0.4-0.8,0.8-1.7,1.6-2.3c1.1-0.5,1.3,0.4,1.5,1.2
			c0.2,0.9,0.2,1.8,0.2,2.8c0,5.4,0,10.8,0,16.2C87.3,181.2,86.7,183.8,85.6,186.3z"/>
		<path class="st62" d="M144.4,184.4c-0.6-0.6-0.4-1.3-0.4-2c0.1-6,0.1-12,0.4-18c0.4-7.7,0.1-15.4,0.1-23.1c0-1-0.5-1.6-1-2.2
			c0.8-2,1.6-4.1,2.3-6.1c0,9.3,0.4,18.6-0.1,27.9c-0.3,6.4-0.2,12.8-0.3,19.2c0,0.9-0.4,1.9,0.6,2.6
			C145.7,183.4,145.2,184.1,144.4,184.4z"/>
		<path class="st63" d="M152.3,175.1c-1.1-0.3-0.8-1.2-0.8-1.9c0-22.5,0-45,0-67.6c0-0.7-0.2-1.4,0.6-1.9c0.7,0.5,1.1,1.1,1.3,1.9
			c-1.1,0.5-0.9,1.5-0.9,2.4c0,4.9,0,9.8,0,14.6c0,12.7,0,25.4,0,38.1c0,3.5,0,6.9,0,10.4c0,1.1,0,2.2,1.6,1.7
			C153.5,173.7,153,174.5,152.3,175.1z"/>
		<path class="st64" d="M125.3,123.9c0.6-5.4,1.3-10.9,1.7-16.3c0.3-4.1,0.6-8.2,1-12.4c0.7-6.8-0.3-13.5-0.5-20.3
			c-0.1-2.8-0.4-5.7-0.3-8.6c1.2,0.1,1.4,1.2,1.9,2c-0.4,2.6-0.2,5.1,0.1,7.7c0.5,5.1,0.7,10.2,0.1,15.2c-0.5,4.4-0.7,8.8-1.2,13.1
			c-0.6,4.8-1,9.7-1.5,14.5c-0.4,3.6-0.9,7.2-1.3,10.8c-0.1,0.6,0.1,1.3-0.5,1.7c-0.1-0.1-0.2-0.2-0.3-0.3
			C124.1,128.5,124.6,126.2,125.3,123.9z"/>
		<path class="st65" d="M117.4,99.1c0-11.2,0-22.4,0-33.6c1.6,1.7,2.1,4,2.9,6.1c0.2,7.2,0.3,14.3-0.1,21.5
			C119.6,95.3,118.8,97.3,117.4,99.1z"/>
		<path class="st62" d="M161.8,217.6c-1.7-1-0.4-2.5-0.3-3.6c0.6-6.6,1.4-13.2,2.2-19.7c0.7-6,1.5-11.9,2.3-17.9c0.2-1.6,0-3,0-4.6
			c0.4-1.4,1-2.6,1.9-3.8c0.4,4.7-0.8,9.2-1.2,13.8c-0.4,4.5-1,9-1.6,13.5c-0.7,6.1-1.5,12.2-2.2,18.3c-0.1,0.9-0.5,1.8,0.4,2.6
			C162.9,216.8,162.4,217.3,161.8,217.6z"/>
		<path class="st66" d="M85.6,186.3c1.4-8.5,0.8-17.1,0.9-25.7c0-0.8,0.5-2-0.9-2.3c0.6-1.1,1.2-2.1,2.2-2.9
			c1.1,0.4,1.1,1.4,1.1,2.3c0,7.4,0,14.8,0,22.2C88.8,182.6,87.9,184.9,85.6,186.3z"/>
		<path class="st66" d="M119.7,220.4c0.7-0.9,1.4-1.8,2.4-2.3c2.1-0.2,1.4,1.4,1.4,2.3c-0.2,3-0.9,6-1.4,9
			c-0.9,5.2-1.5,10.4-2.6,15.6c-0.2,1.1-0.4,2.1-1.1,3c-0.9,1.2-2,2.1-3.3,2.9c0.1-2.7,0.6-5.3,1.1-7.9c1.2-6.9,2.3-13.8,3.5-20.8
			C119.8,221.6,119.8,221,119.7,220.4z"/>
		<path class="st57" d="M118.4,248c0.7-4.2,1.4-8.5,2.1-12.7c0.8-5.1,1.7-10.3,2.5-15.4c0.1-0.7,0.3-1.6-0.8-1.8
			c1-1,1.8-2.2,3.2-2.8c1.6,0.4,0.9,1.6,0.8,2.4c-0.8,4.6-1.5,9.2-2.2,13.8c-0.6,4.1-1.2,8.1-2,12.1c-0.2,1-0.5,1.9-1.2,2.7
			C120.1,247.1,119.3,247.7,118.4,248z"/>
		<path class="st59" d="M135.6,78.6c0.3,6.5,0.6,12.9,1.3,19.4c0.2,2.2,0.2,4.5,0.4,6.7c0.7,8.4,1,16.8,1.5,25.2
			c-0.6,0.5-0.1,1.5-0.9,2c-1-1.1-1-2.6-1.1-3.9c-0.2-3.2-0.8-6.4-0.5-9.6c-0.6-4-0.3-8.1-0.9-12.1c-0.3-1.9,1-3.8,0.2-5.7
			c-0.2-8-1.4-16-1.4-24c0-0.2,0-0.5,0-0.7C135,76.6,135.4,77.5,135.6,78.6z"/>
		<path class="st67" d="M171.3,208.3c-1.2,0.7-1.8,0.6-1.6-1c0.4-3.4,0.7-6.7,1.1-10.1c0.4-3.7,0.8-7.3,1.2-11c0.5-4.7,1-9.3,1.5-14
			c0.6-5.5,1.2-11,1.8-16.5s1.3-11,2-16.5c0-0.2,0.3-0.4,0.4-0.5c0.6,0.5,0.9,1.1,0.9,1.9c-1,0.4-0.9,1.3-1,2.1
			c-0.6,5.2-1.5,10.4-1.7,15.6c-0.3,7-1.8,13.8-2.1,20.7c-0.2,5-1,10-1.6,14.9c-0.5,4.1-0.6,8.1-1.5,12.2c-0.2,0.8,0.3,1.3,1,1.7
			C171.5,208,171.4,208.1,171.3,208.3z"/>
		<path class="st66" d="M104.8,219.1c-0.6,1.1-1.3,2-2.4,2.6c-0.5-3.5-0.2-6.9,0-10.4c0.3-6.6,1.1-13.3,0.8-19.9
			c0.7-1,1.3-2.1,2.4-2.8c1.7-0.4,1.6,0.8,1.6,1.8c-0.3,5.7-0.5,11.3-0.9,17c-0.1,2.2-0.2,4.5-0.4,6.7
			C105.8,215.8,105.6,217.5,104.8,219.1z"/>
		<path class="st68" d="M109.5,214.4c-0.4,0.9-1,1.5-1.8,1.9c-1.5-0.8-1.2-2.2-1.2-3.5c0.4-8,1-16.1,1.3-24.1c0-1.2,0.3-2.3,0.7-3.4
			c0.5-0.7,1-1.5,1.8-1.9c1.8,0.4,1.4,1.9,1.3,3c-0.3,3.8-0.2,7.6-0.5,11.4c-0.4,4.4-0.2,8.8-0.8,13.2
			C110.1,212.2,110,213.4,109.5,214.4z"/>
		<path class="st69" d="M120.7,246.2c0.9-5.5,1.8-10.9,2.7-16.4c0.7-4.4,1.4-8.8,2.1-13.2c0.1-0.6,0.3-1.1-0.3-1.4
			c0.5-0.5,1-0.9,1.5-1.4c1.6-1.1,1.9-0.1,1.7,1.2c-0.3,3.3-0.8,6.6-1.4,9.9c-1,5.2-1.5,10.4-2.5,15.6c-0.2,1.1-0.4,2.3-1,3.3
			C122.8,244.9,121.8,245.6,120.7,246.2z"/>
		<path class="st70" d="M108.4,185.4c0,2.8,0.2,5.6,0,8.4c-0.4,4.8-0.9,9.5-0.9,14.3c0,1.5,0,3.1-0.4,4.6c-0.3,1.2-0.2,2.5,0.5,3.6
			c-0.8,1.1-1.6,2.1-2.8,2.7c0.4-6.7,0.9-13.3,1.3-20c0.2-3.1-0.3-6.2,0.5-9.2c0.2-0.7-0.3-1.2-1-1.3
			C106.4,187.4,107.2,186.2,108.4,185.4z"/>
		<path class="st71" d="M163.1,176.4c-0.6,5.1-1.2,10.2-1.8,15.3c-0.7,5.7-1.5,11.4-2.2,17.2c-0.4,3.8-0.7,7.7-1.1,11.5
			c-0.4,0.7-1.1,1.1-1.9,1.4c0.5-4.5,0.9-9,1.5-13.5c0.7-5.6,1.5-11.3,2.2-16.9c0.5-3.5,0.9-7,1.3-10.5c0.1-0.4-0.1-0.8-0.4-1
			C161.4,178.6,162.2,177.4,163.1,176.4z"/>
		<path class="st69" d="M90.8,180.7c0-8.7,0-17.4,0-26c0-0.8,0.3-1.7-0.5-2.4c0.5-0.9,1-1.8,1.9-2.3c2,0.5,1.4,2.2,1.5,3.4
			c0.1,5.7,0.2,11.5,0.2,17.2c0,2.7-0.1,5.3-1.2,7.8c-0.2,0.3-0.3,0.6-0.5,0.9C91.6,179.7,91.9,180.9,90.8,180.7z"/>
		<path class="st71" d="M141.6,143.3c0.3,12.5-0.8,25.1-0.4,37.6c0.1,2.2,0,4.3,0.1,6.5c-0.3,0.6-0.8,1-1.4,1.3
			c0-7.6-0.2-15.2,0-22.7c0.2-5.6,0.4-11.3,0.4-16.9c0-0.8,0.3-1.7-0.5-2.4C140.2,145.4,140.8,144.3,141.6,143.3z"/>
		<path class="st19" d="M109.5,214.4c0.3-8.7,0.7-17.4,1.3-26.1c0.1-1.6,0.7-3.4-0.5-4.9c0.7-0.7,1.4-1.5,2-2.2
			c1.5,0.4,1.1,1.7,1.1,2.7c0.1,4-0.3,7.9-0.5,11.9c-0.2,3.9-0.3,7.8-0.3,11.6c0,1.8-0.3,3.6-1.2,5.2
			C110.9,213.4,110.3,214,109.5,214.4z"/>
		<path class="st72" d="M103.2,191.4c1.6,0.3,1.2,1.6,1,2.4c-0.9,3.8-0.4,7.7-0.7,11.5c-0.4,4.6-0.9,9.2-0.6,13.9
			c0,0.8-0.3,1.7-0.5,2.5c-0.5,1-1.4,1.8-2.3,2.3c1-2.2,0.5-4.6,0.8-6.9c0.3-2.6,0.7-5.3,0.7-8.1c-0.2-4.9,0.3-9.7,0.8-14.5
			c0.1-0.6,0-1.1-0.6-1.4C102.2,192.5,102.5,191.8,103.2,191.4z"/>
		<path class="st19" d="M123.5,243.9c-0.1-3.8,1.1-7.4,1.6-11.1c0.7-6.1,1.9-12.1,2.9-18.1c0.3-1.6-0.8-0.6-1.3-0.7
			c0.9-0.8,1.8-1.6,2.8-2.4c1.6,0.5,1.1,1.8,0.9,2.9c-0.8,5.2-1.3,10.4-2.3,15.6c-0.6,2.9-0.8,5.8-1.2,8.7c-0.2,1.4-0.3,2.8-1.5,3.8
			C124.9,243.1,124.3,243.6,123.5,243.9z"/>
		<path class="st13" d="M111.4,212.6c0.3-7.6,0.5-15.3,0.9-22.9c0.2-2.8,0.9-5.6,0-8.4c0.4-0.8,1-1.4,1.7-1.9c1.1,1.9,0.6,4.1,0.4,6
			c-0.1,1.3-0.3,2.6-0.3,3.9c-0.3,7.1-0.6,14.3-0.9,21.4C112.8,211.5,112.2,212.1,111.4,212.6z"/>
		<path class="st73" d="M119.7,220.4c0.8,0.1,1,0.6,0.9,1.3c-1.2,6.8-2.3,13.7-3.6,20.5c-0.6,2.9-0.1,6.1-1.9,8.7
			c-0.3,0.6-0.8,1-1.5,1.2c1.5-9.3,3.1-18.6,4.6-27.9c0.1-0.7,0.3-1.4-0.3-1.9C118.4,221.5,118.8,220.8,119.7,220.4z"/>
		<path class="st74" d="M125.4,242.4c1.3-4.6,1.4-9.4,2.3-14.1c0.9-4.7,1.4-9.4,2.2-14c0.2-1,0.6-2-0.3-2.8c0.6-0.6,1.3-1.2,1.9-1.8
			c0.8,0.4,0.8,0.9,0.6,1.7c-1.3,8-2.6,16-3.8,24.1c-0.3,1.7-0.4,3.4-0.5,5C127.1,241.3,126.3,242,125.4,242.4z"/>
		<path class="st75" d="M78.5,255.9c1.2,0.1,1.6-0.6,1.5-1.7c-0.1-1.7,0-3.4,0-5.1c0-0.7-0.2-1.6,0.6-2.1c3,3.6,6.1,7.1,9.8,10.6
			C86,257.9,82.2,257.2,78.5,255.9z"/>
		<path class="st76" d="M160.4,161.7c-0.9-2.5-0.4-5-0.5-7.5c-0.1-11.4,0-22.8,0-34.2c0.9,1.4,1.3,3,1.4,4.6c0.8,3,0,6,0.3,8.9
			c0.4,4.1,0.3,8.2,0.3,12.2c0,4.5,0.5,9.1-0.6,13.6C161.3,160.3,161,161.1,160.4,161.7z"/>
		<path class="st19" d="M92.6,178.4c0.7-6.2,0.5-12.5,0.5-18.7c0-2.9-0.2-5.9-0.2-8.8c0-0.5-0.3-0.7-0.6-0.9
			c0.6-0.8,1.2-1.6,1.9-2.3c1.3,0.3,1.1,1.4,1.1,2.2c-0.1,7.5,0.8,15.1,0.3,22.6c0,0.6-0.2,1.2-0.5,1.7
			C94.8,176,93.8,177.2,92.6,178.4z"/>
		<path class="st77" d="M179.6,197.2c-0.1-4.5,0.8-8.9,1.2-13.3c0.3-3.9,0.7-7.8,1.1-11.7c0.6-5.4,0.8-10.9,1.9-16.2
			c0.5,0.6,0.5,1.2,0.5,1.9c0.5,3.4,0.3,6.7,0,10.1c-0.3,4.3-1,8.6-1.2,12.9c-0.2,4.2-0.8,8.4-1.6,12.6
			C181.1,194.8,180.6,196.2,179.6,197.2z"/>
		<path class="st74" d="M95,174.2c-0.2-8.2-0.3-16.4-0.5-24.6c0-0.7,0.2-1.4-0.4-2c0.5-0.6,1-1.2,1.4-1.9c1,0.5,0.9,1.4,0.9,2.2
			c0,7.8,0,15.7,0,23.5C96.4,172.7,96.1,173.7,95,174.2z"/>
		<path class="st78" d="M120.2,93.1c-0.6-0.4-0.5-1.1-0.5-1.7c0-6,0-11.9,0-17.9c0-0.7-0.2-1.4,0.6-1.9
			C123.4,78.8,123.3,85.9,120.2,93.1z"/>
		<path class="st79" d="M181.4,193.5c-0.1-6.7,1.2-13.3,1.6-20c0.3-5.2,1.4-10.4,1.2-15.7c0.5,2.1,1.1,4.3,0.9,6.5
			c0.6,4.6-0.1,9.2-0.5,13.8c-0.2,3.1-0.9,6.1-0.9,9.2C182.4,189.2,183.1,191.8,181.4,193.5z"/>
		<path class="st65" d="M161.3,159.4c0-7.3,0.3-14.6-0.2-21.9c-0.3-4.3,0.2-8.6,0.2-12.9c0.6,1,0.9,2.1,0.9,3.3
			c0.9,8.8,1.8,17.5,0.5,26.3C162.8,156.2,162,157.8,161.3,159.4z"/>
		<path class="st12" d="M118.3,124.3c-0.8,0.2-0.4,2-1.9,1.4c0-1.9,0-3.8,0-5.7c0-0.7,0.2-1.6-0.9-1.8c1.4-2.5,2.8-5,4.1-7.6
			C120.8,115.4,120.2,119.9,118.3,124.3z"/>
		<path class="st80" d="M142.6,118.3c-0.6-7.4-1.3-14.9-1.9-22.3c-0.1-1.2,0-2.3,0-3.5C143.6,100.9,144.6,109.5,142.6,118.3z"/>
		<path class="st81" d="M137,118.3c-0.2,4.6,0.7,9.1,1,13.6c-0.3,1.3-1,2.3-1.8,3.2c-1.3-0.1-1.1-1.2-1.4-2c-0.6-1.8,0-3.7-0.5-5.4
			c0-3,0.8-5.9,1.3-8.9C135.6,118.1,136,117.1,137,118.3z"/>
		<path class="st82" d="M162.8,154.3c-0.2-8.8-0.3-17.6-0.5-26.3c2.3,8,2.5,16,1.2,24.2C163.4,152.9,163,153.6,162.8,154.3z"/>
		<path class="st83" d="M183.7,187.3c-1.3-2.9-0.1-5.8,0.1-8.6c0.3-4.8,1.1-9.6,1.3-14.4C186.6,172.1,186.1,179.8,183.7,187.3z"/>
		<path class="st84" d="M134.7,127.6c1,2,0.1,4.3,0.9,6.3c0.2,0.4,0.1,0.9,0.6,1.2c-0.7,1.6-1.6,3-2.8,4.2c-2-0.8-1-2.6-1.3-4
			c0-1.6-0.1-3.2,0.4-4.7c0.1-0.2,0.2-0.5,0.3-0.7C133.5,129.2,133.6,128,134.7,127.6z"/>
		<path class="st85" d="M88.5,189.6c0.1-0.3,0.3-0.6,0.4-0.9c0.4-0.8,0.8-1.6,1.7-1.9c3.6-1.9,6.1-5,8.6-8c1.3-1.6,2.5-3.3,3.6-5.1
			c0.6-0.6,1.2-1.3,1.9-1.9c0.3-0.1,0.6-0.3,0.9-0.4c0.2,0.4,0.4,0.8,0,1.3c-4,4.6-7.2,9.8-11.9,13.8
			C92.1,187.7,90.8,189.4,88.5,189.6z"/>
		<path class="st86" d="M132.8,135c0.3,1.4-0.6,3,0.6,4.3c-0.3,0.9-0.7,1.7-1.5,2.3c-0.5-0.3-0.3-0.9-0.6-1.2
			c-0.5-0.7-1.1-1.6-1.8-2c-1-0.5-1.3,0.7-1.9,1.2c-0.7,0.6-1.6,0.6-2.3,1.1c-0.6-0.8,0-1.3,0.6-1.7c1-0.7,1.7-1.6,2.6-2.3
			C129.8,135.9,130.8,134,132.8,135z"/>
		<path class="st87" d="M121.1,154.5c-0.1-1.4,0.1-2.7,1.5-3.5c1.3-0.8,1.1-2.4,1.7-3.7c0.3-0.7,0.4-1.6,1.3-1.7
			c1.1-0.1,1.5,0.8,2,1.6C126,150.1,123.3,152.1,121.1,154.5z"/>
		<path class="st88" d="M126.3,64.6c-1.1-0.4-1,0.3-0.9,0.9c0.5,3.6,0.8,7.1,0.9,10.7h-0.2h-0.2c-0.6-4.3-1.3-8.7-1.9-13
			c-0.1-0.7-0.8-1.6,0.5-1.9C125,62.5,125.9,63.4,126.3,64.6z"/>
		<path class="st89" d="M124.9,143.4c0.3-2.1,2.3-2.3,3.8-3c0.6-0.3,0.8,0.1,1,0.6c0.3,0.8,0.6,1.6,0.8,2.4
			c-0.2,0.8-0.7,1.4-1.3,1.9c-0.5-0.4-1.3-0.8-1.5-1.3C126.9,142.4,125.9,142.8,124.9,143.4z"/>
		<path class="st90" d="M124.4,61.3c-0.8,0.5-0.3,1.3-0.5,1.9c-0.3-1.1-0.6-2.2-1-3.6C124,60,124.3,60.6,124.4,61.3z"/>
		<path class="st85" d="M106.1,170.9c0.6-0.8,1.4-1.5,2.3-2C107.9,169.9,108,171.5,106.1,170.9z"/>
		<path class="st91" d="M69.6,82.8c1.7,0.9,1,1.9,0.1,2.9c-0.1-0.8,0.3-1.7-0.4-2.3C69.4,83.1,69.5,82.9,69.6,82.8z"/>
		<path class="st92" d="M147.7,96.4c-0.7,0.5-0.3,1.3-0.5,1.9c-0.6-0.6-0.4-1.4-0.4-2.2c0-0.3-0.1-0.9,0.5-0.7
			C147.7,95.5,147.7,96,147.7,96.4z"/>
		<path class="st93" d="M98.2,266.5c0.3,0.6-0.3,1.4,0.5,1.9c-0.1,0.9-0.5,1.2-0.9,0.2C97.5,267.9,97.7,267.1,98.2,266.5z"/>
		<path class="st94" d="M83.7,14.3c1,0,1.3,0.5,1.1,1.5C84.5,15.3,84.1,14.8,83.7,14.3z"/>
		<path class="st80" d="M142.1,121.1c0.2-0.9-0.4-2,0.5-2.8C142.7,119.2,142.8,120.2,142.1,121.1z"/>
		<path class="st91" d="M69.7,86.1c0.4,0.2,1,0.6,0.8,1c-0.7,2.5-0.1,5,0,7.6c0.2,5-0.1,10,0.2,15c0.1,1.6-0.6,2.9-0.5,4.5
			c0.3,4.7,0.2,9.5,0,14.3c-0.2,4,0.3,8,0.5,12c0.1,3.3,0.3,6.8-1.1,10c0-2.5,0-5-0.1-7.4c-0.1-10.8,0.2-21.5-0.1-32.3
			c-0.2-6.8,0-13.6,0.2-20.4C69.8,88.9,68.8,87.5,69.7,86.1z"/>
		<path class="st95" d="M105.2,170.5c-0.7-0.1-1.4,0.2-2.2-0.3c0.7-0.8,1.5-1.7,2.2-2.5C106,168.6,105.4,169.6,105.2,170.5z"/>
		<path class="st88" d="M126.3,81c1,2,0.2,4,0.4,6C125.7,85.1,126.5,83,126.3,81z"/>
		<path class="st88" d="M126.7,90.3c0.9,1.1,0.3,2.5,0.5,3.7C126.3,92.9,126.9,91.5,126.7,90.3z"/>
		<path class="st88" d="M127.2,97.3c0,0.5,0.1,1.1-0.5,1.4C125.9,97.9,126.7,97.6,127.2,97.3z"/>
		<path class="st96" d="M134.7,127.6c-0.5,0.7-0.3,1.9-1.4,2.3c-1.2-2.2-0.5-4.3,0.1-6.5c1.3-4.2-0.2-8.2-0.3-12.4
			c-1,1.2-0.7,3.1-2.6,3.5c0.8-5.8,1.6-11.6,2.4-17.4c1.9,1.7,2.4,3.6,2.3,6.2c0.7-1.2,0.4-2,0.5-2.7c1.1,2.5,0.5,5.1,0.8,7.7
			c0.4,3.3,0.5,6.7,0.6,10.1c-0.3-0.1-0.8-0.4-0.9,0.2C135.6,121.5,135.1,124.6,134.7,127.6z"/>
		<path class="st97" d="M130.5,114.5c1.4-1.3,1.4-3.1,1.8-4.9c1.6,0.8,2,2,1.9,3.4c0,2.2,0,4.4,0.4,6.7c0.2,1.2,0.1,2.5-0.6,3.8
			c-1.1,1.9-0.8,4.2-0.8,6.4c0,0.2,0,0.3,0,0.5c-0.7,0.2-1.4,0.1-1.8,1c-0.4,1-1.3,2.2-2.8,1.3C129.6,126.7,130,120.6,130.5,114.5z"
			/>
		<path class="st98" d="M128.6,132.7c1.4,0.2,2.3-0.9,2.6-1.8c0.5-1.6,1.3-0.7,2.1-0.6c-0.8,1.5-0.3,3.1-0.5,4.7
			c-1.8-0.3-2.6,1.6-4.2,1.9c-0.4-0.2-0.7-0.4-0.5-0.9c0.2-0.8,0.3-1.6,0.5-2.3C128.6,133.3,128.6,133,128.6,132.7z"/>
		<path class="st64" d="M128.1,136c0.2,0.3,0.3,0.6,0.5,0.9c-0.6,1.6-2.7,2.1-3.3,3.7c-0.2,0.2-0.3,0.3-0.5,0.5
			c-1-0.1-1.4-0.8-1.4-1.5c-0.2-2.6,0.1-5.2,0.7-7.8c0.1-0.3,0.4-0.4,0.7-0.4l0,0c0.3,2.3-0.4,4.7-0.3,7.5
			C126,137.7,127,136.8,128.1,136z"/>
		<path class="st99" d="M102.9,173.7c-0.5,2.3-2,4-3.4,5.7c-2.1,2.7-4.6,5.2-7.4,7.3c-0.5,0.3-0.9,0.6-1.5,0.5
			c0-1.1,0.5-1.9,1.6-2.2c0.6-0.3,1.1-0.8,1.4-1.5c1.5-1.1,2.6-2.7,3.8-4.1c1.8-1.5,3.4-3.1,4.7-5.1
			C102.3,174.1,102.6,173.9,102.9,173.7z"/>
		<path class="st86" d="M124.9,131.3c-0.5,3.3-2,6.5,0,9.8c-1.1,0.3-2.5,0.8-2.3-1.2c0.6-4.9,1.2-9.7,1.8-14.5
			c0.1-0.7,0.3-1.2,0.9-1.5C125.4,126.4,124.6,128.8,124.9,131.3z"/>
		<path class="st100" d="M92.2,185c-0.5,0.7-1,1.5-1.6,2.2c-0.6,0.5-1.1,1-1.7,1.6c-0.2-2.8-0.1-5.6,1.8-8c0.5-0.5,0.9-0.9,1.4-1.4
			C92.2,181.2,92.2,183.1,92.2,185z"/>
	</g>
	<text transform="matrix(1 0 0 1 237.1819 170.2773)" class="st101 st102">LEOR</text>
	<text transform="matrix(1 0 0 1 284.8819 255.2773)" class="st101 st103">MEDIA</text>
</g>
</svg>
