<svg id="Layer_2" data-name="Layer 2" xmlns="http://www.w3.org/2000/svg" xmlns:xlink="http://www.w3.org/1999/xlink" viewBox="0 0 437.94 800"><defs><style>.cls-1{fill:url(#linear-gradient);}.cls-2{fill:url(#linear-gradient-2);}.cls-3{fill:url(#linear-gradient-3);}.cls-4{fill:url(#linear-gradient-4);}.cls-5{fill:#fff;}</style><linearGradient id="linear-gradient" x1="351.08" y1="267.83" x2="30.39" y2="341.39" gradientUnits="userSpaceOnUse"><stop offset="0" stop-color="#fee531"/><stop offset="0.11" stop-color="#fdde31"/><stop offset="0.25" stop-color="#fccc2f"/><stop offset="0.43" stop-color="#f9ad2e"/><stop offset="0.63" stop-color="#f5832b"/><stop offset="0.83" stop-color="#f04e28"/><stop offset="1" stop-color="#ec1e25"/></linearGradient><linearGradient id="linear-gradient-2" x1="330.51" y1="128.5" x2="165.44" y2="498.11" gradientUnits="userSpaceOnUse"><stop offset="0.19" stop-color="#fee531"/><stop offset="0.31" stop-color="#fabc2f"/><stop offset="0.52" stop-color="#f4792a"/><stop offset="0.7" stop-color="#f04828"/><stop offset="0.84" stop-color="#ed2926"/><stop offset="0.92" stop-color="#ec1e25"/></linearGradient><linearGradient id="linear-gradient-3" x1="383.13" y1="231.45" x2="191.9" y2="595.46" gradientUnits="userSpaceOnUse"><stop offset="0.14" stop-color="#fee531"/><stop offset="0.16" stop-color="#fdda30"/><stop offset="0.27" stop-color="#f9a82d"/><stop offset="0.39" stop-color="#f57e2b"/><stop offset="0.51" stop-color="#f25b29"/><stop offset="0.63" stop-color="#ef4027"/><stop offset="0.75" stop-color="#ed2d26"/><stop offset="0.87" stop-color="#ec2225"/><stop offset="1" stop-color="#ec1e25"/></linearGradient><linearGradient id="linear-gradient-4" x1="449.78" y1="305.52" x2="233.86" y2="647.93" gradientUnits="userSpaceOnUse"><stop offset="0" stop-color="#fee531"/><stop offset="0.13" stop-color="#fcca2f"/><stop offset="0.43" stop-color="#f5842b"/><stop offset="0.81" stop-color="#ec1e25"/></linearGradient></defs><path class="cls-1" d="M177.13,0s51.5,50.5-63.5,199.5l-69,103s-108,141,12,253c0,0,82.25,63,129.13,58,0,0-49.46-42.35-68.74-118.44-.28-1.1-.7-1.92-.89-3-3.82-23.58-6.44-57.61,50.5-148.5l89-131s36-48-8-106Z"/><path class="cls-2" d="M280.13,106s26,80-21,151c0,0-36.5,54.5-73.5,99.5,0,0-40,44-35,135,0,0,0-20,93-109,0,0,61-59,76-95C319.63,287.5,365.63,211.5,280.13,106Z"/><path class="cls-3" d="M342.17,190.79S363,272.29,311.6,340.15c0,0-39.89,52.07-79.68,94.62,0,0-42.72,41.37-43.52,132.5,0,0,1.27-20,99.75-102.86,0,0,64.63-55,81.89-90C370,374.44,420.78,301.52,342.17,190.79Z"/><path class="cls-4" d="M403.12,276.1S417.48,359,360.87,422.58c0,0-43.87,48.76-86.89,88.05,0,0-45.85,37.86-53.83,128.65,0,0,2.84-19.8,107.55-94.68,0,0,68.76-49.73,88.72-83.23C416.42,461.37,472.76,392.67,403.12,276.1Z"/><path class="cls-5" d="M73.58,650.24H85.67v83.54h40v10.15H73.58Z"/><path class="cls-5" d="M187.7,700H151.28v33.78h40.59v10.15H139.18V650.24h50.6v10.14h-38.5V690H187.7Z"/><path class="cls-5" d="M287.64,696.11c0,32.25-19.6,49.35-43.51,49.35-24.74,0-42.12-19.19-42.12-47.54,0-29.75,18.49-49.21,43.51-49.21C271.1,648.71,287.64,668.31,287.64,696.11Zm-72.7,1.53c0,20,10.84,38,29.89,38s30-17.66,30-38.92c0-18.63-9.73-38.09-29.89-38.09S214.94,677.07,214.94,697.64Z"/><path class="cls-5" d="M303.34,651.49a126.13,126.13,0,0,1,23.22-2c12.92,0,21.26,2.37,27.1,7.65,4.73,4.17,7.37,10.56,7.37,17.79,0,12.37-7.78,20.57-17.65,23.91v.42c7.22,2.5,11.53,9.17,13.76,18.9,3.06,13.07,5.28,22.1,7.23,25.72H351.86c-1.53-2.64-3.62-10.7-6.26-22.38-2.78-12.93-7.78-17.79-18.77-18.21H315.44v40.59h-12.1Zm12.1,42.67h12.37c12.93,0,21.13-7.09,21.13-17.79,0-12.09-8.76-17.37-21.55-17.51A49.48,49.48,0,0,0,315.44,660Z"/><path class="cls-5" d="M169.05,780.68c-.32-6-.71-13.25-.64-18.62h-.19c-1.48,5.05-3.27,10.43-5.44,16.38l-7.62,20.93h-4.22l-7-20.55c-2.05-6.08-3.77-11.64-5-16.76h-.13c-.12,5.37-.45,12.6-.83,19.07l-1.15,18.49h-5.31l3-43.13h7.11L149,777.35c1.79,5.31,3.26,10,4.35,14.53h.19c1.09-4.35,2.63-9.09,4.55-14.53l7.67-20.86h7.11l2.69,43.13h-5.44Z"/><path class="cls-5" d="M206.49,779.4H189.72V795h18.69v4.67H184.15V756.49h23.3v4.67H189.72v13.63h16.77Z"/><path class="cls-5" d="M215.64,757.06a80,80,0,0,1,11.84-.89c8,0,13.7,1.85,17.47,5.37S251,770.06,251,777s-2.18,12.8-6.21,16.77-10.68,6.2-19.07,6.2a90,90,0,0,1-10.11-.51Zm5.57,38.15a35.91,35.91,0,0,0,5.63.32c11.9,0,18.37-6.66,18.37-18.31.06-10.17-5.7-16.64-17.47-16.64a31.59,31.59,0,0,0-6.53.58Z"/><path class="cls-5" d="M263.83,756.49v43.13h-5.57V756.49Z"/><path class="cls-5" d="M280.54,786.05l-4.48,13.57H270.3L285,756.49h6.72l14.72,43.13h-5.95l-4.61-13.57Zm14.14-4.35-4.22-12.41c-1-2.82-1.61-5.38-2.24-7.87h-.13c-.64,2.56-1.35,5.18-2.18,7.8l-4.22,12.48Z"/></svg>